HIERARCHY
ROOT Hips
{
	OFFSET 0.00000 0.00000 0.00000
	CHANNELS 6 Xposition Yposition Zposition Zrotation Yrotation Xrotation 
	JOINT LHipJoint
	{
		OFFSET 0 0 0
		CHANNELS 3 Zrotation Yrotation Xrotation
		JOINT LeftHip
		{
			OFFSET 1.57358 -1.76629 0.73362
			CHANNELS 3 Zrotation Yrotation Xrotation
			JOINT LeftKnee
			{
				OFFSET 2.40600 -6.61045 0.00000
				CHANNELS 3 Zrotation Yrotation Xrotation
				JOINT LeftAnkle
				{
					OFFSET 2.66168 -7.31291 0.00000
					CHANNELS 3 Zrotation Yrotation Xrotation
					JOINT LeftToe
					{
						OFFSET 0.20870 -0.57341 2.12506
						CHANNELS 3 Zrotation Yrotation Xrotation
						End Site
						{
							OFFSET 0.00000 -0.00000 1.10557
						}
					}
				}
			}
		}
	}
	JOINT RHipJoint
	{
		OFFSET 0 0 0
		CHANNELS 3 Zrotation Yrotation Xrotation
		JOINT RightHip
		{
			OFFSET -1.49299 -1.76629 0.73362
			CHANNELS 3 Zrotation Yrotation Xrotation
			JOINT RightKnee
			{
				OFFSET -2.43663 -6.69460 0.00000
				CHANNELS 3 Zrotation Yrotation Xrotation
				JOINT RightAnkle
				{
					OFFSET -2.62959 -7.22474 0.00000
					CHANNELS 3 Zrotation Yrotation Xrotation
					JOINT RightToe
					{
						OFFSET -0.25784 -0.70841 2.21862
						CHANNELS 3 Zrotation Yrotation Xrotation
						End Site
						{
							OFFSET -0.00000 -0.00000 1.16452
						}
					}
				}
			}
		}
	}
	JOINT lowerback
	{
		OFFSET 0 0 0
		CHANNELS 3 Zrotation Yrotation Xrotation
		JOINT Chest
		{
			OFFSET -0.00034 2.12399 -0.25450
			CHANNELS 3 Zrotation Yrotation Xrotation
			JOINT Chest2
			{
				OFFSET 0.05594 2.14379 -0.03318
				CHANNELS 3 Zrotation Yrotation Xrotation
				JOINT lowerneck
				{
					OFFSET 0 0 0
					CHANNELS 3 Zrotation Yrotation Xrotation
					JOINT Neck
					{
						OFFSET -0.09835 1.62725 0.24211
						CHANNELS 3 Zrotation Yrotation Xrotation
						JOINT Head
						{
							OFFSET 0.10849 1.66041 -0.22648
							CHANNELS 3 Zrotation Yrotation Xrotation
							End Site
							{
								OFFSET 0.04385 1.68267 -0.10541
							}
						}
					}
				}
				JOINT LeftCollar
				{
					OFFSET 0 0 0
					CHANNELS 3 Zrotation Yrotation Xrotation
					JOINT LeftShoulder
					{
						OFFSET 3.29108 0.79398 -0.68179
CHANNELS 3 Zrotation Xrotation Yrotation
						JOINT LeftElbow
						{
OFFSET 0 -5.153100 -0.000000
CHANNELS 3 Zrotation Xrotation Yrotation
							JOINT LeftWrist
							{
OFFSET 0 -3.751380 -0.000000
CHANNELS 3 Zrotation Xrotation Yrotation
								JOINT lhand
								{
									OFFSET 0 0 0
CHANNELS 3 Zrotation Xrotation Yrotation
									JOINT LFingers
									{
OFFSET 0 -0.529170 0.000000
CHANNELS 3 Zrotation Xrotation Yrotation
										End Site
										{
OFFSET 0 -0.426630 0.000000
										}
									}
								}
								JOINT LThumb
								{
OFFSET 0 0.000000 0.000000
CHANNELS 3 Zrotation Xrotation Yrotation
									End Site
									{
OFFSET 0 -0.433150 0.433150
									}
								}
							}
						}
					}
				}
				JOINT RightCollar
				{
					OFFSET 0 0 0
					CHANNELS 3 Zrotation Yrotation Xrotation
					JOINT RightShoulder
					{
						OFFSET -3.07414 1.06285 -0.44338
CHANNELS 3 Zrotation Xrotation Yrotation
						JOINT RightElbow
						{
OFFSET 0 -5.296130 0.000000
CHANNELS 3 Zrotation Xrotation Yrotation
							JOINT RightWrist
							{
OFFSET 0 -3.761440 -0.000000
CHANNELS 3 Zrotation Xrotation Yrotation
								JOINT rhand
								{
									OFFSET 0 0 0
CHANNELS 3 Zrotation Xrotation Yrotation
									JOINT RFingers
									{
OFFSET 0 -0.747320 0.000000
CHANNELS 3 Zrotation Xrotation Yrotation
										End Site
										{
OFFSET 0 -0.602510 0.000000
										}
									}
								}
								JOINT RThumb
								{
OFFSET 0 0.000000 0.000000
CHANNELS 3 Zrotation Xrotation Yrotation
									End Site
									{
OFFSET 0 -0.611710 0.611710
									}
								}
							}
						}
					}
				}
			}
		}
	}
}
MOTION
Frames: 5
Frame Time: .0083333
1.0564 17.3297 3.0080 21.7213 -43.6516 -8.2366 0.0000 0.0000 0.0000 -29.1779 -2.6911 8.9030 6.5399 14.9319 47.1120 2.0933 -3.9304 28.9608 0.0313 -1.1426 -3.1413 0.0000 0.0000 0.0000 20.8831 6.0079 -34.0498 -2.0481 -8.9655 25.6875 -0.0424 -2.5952 3.8272 -2.0310 -8.9304 25.5778 -8.3750 -0.2198 11.0606 -0.8845 -1.4833 -0.6631 4.0287 -0.4494 -6.7536 -12.7402 -4.9577 -18.4915 6.7381 -4.6849 16.6200 3.7662 -2.3349 8.7078 -0.0000 0.0000 0.0000 2.6522 16.3539 -33.1649 125.2160 -54.7517 89.9605 18.2299 -25.149 -6.0629 0.0 0.0 0.0 -7.1250 0.0 0.0 -7.1436 36.2812 -1.5411 -0.0000 0.0000 0.0000 -2.1374 27.2943 36.4563 -123.2966 -55.3655 -88.387 -14.4837 -19.2519 -24.9143 0.0 0.0 0.0 7.1250 0.0 -0.0 9.1735 4.6297 8.5152
0.8209 17.2334 3.3712 21.5812 -44.3688 -8.7701 0.0000 0.0000 0.0000 -28.5876 -2.0167 7.6311 7.4091 15.6670 50.4053 2.0450 -2.7146 28.1036 0.0408 -1.3033 -3.5837 0.0000 0.0000 0.0000 21.8892 4.8201 -33.6427 -2.4176 -9.6865 27.9675 0.0012 -2.0110 1.3057 -2.1037 -9.0788 26.0422 -8.0250 -0.0618 11.3827 -0.7677 -1.2446 -0.5709 3.9234 -0.3404 -6.8711 -12.7653 -4.9302 -18.3594 6.4919 -4.6135 16.7684 3.6968 -2.3343 8.7232 0.0000 0.0000 0.0000 2.5325 17.0516 -33.6708 124.7171 -54.916 89.5527 21.8057 -27.0946 -5.3444 0.0 0.0 0.0 -7.1250 0.0 0.0 -4.0853 35.7087 -0.9347 0.0000 0.0000 0.0000 -2.3225 26.6827 36.5905 -123.0361 -55.4451 -88.1725 -15.0522 -19.7144 -24.7566 0.0 0.0 0.0 7.1250 0.0 -0.0 8.8164 4.7101 8.1619
0.5829 17.1356 3.7310 21.6002 -44.9546 -9.3664 0.0000 0.0000 0.0000 -28.0304 -1.4757 6.2282 8.3331 16.3588 53.7536 1.9692 -1.2415 27.0096 0.0140 -0.7643 -2.1004 0.0000 0.0000 0.0000 22.4099 4.1112 -32.9231 -2.8413 -10.4336 30.3927 0.0169 -2.5301 -2.0377 -2.1672 -9.2060 26.4417 -7.7433 0.0059 11.6235 -0.8004 -1.1338 -0.4012 3.7149 -0.3031 -6.8437 -12.3521 -4.7796 -18.6316 6.0654 -4.4046 17.0706 3.5106 -2.2556 8.8327 -0.0000 -0.0000 0.0000 2.5624 17.7281 -33.7407 124.2888 -55.0543 89.2019 23.6029 -28.7104 -5.2619 0.0 0.0 0.0 -7.1250 0.0 0.0 -2.5797 35.7092 -0.5895 -0.0000 -0.0000 0.0000 -2.5314 25.9439 36.87 -122.8306 -55.5072 -88.0032 -15.2125 -19.8395 -24.5855 0.0 0.0 0.0 7.1250 0.0 -0.0 8.7075 4.8602 8.0338
0.3386 17.0427 4.0835 21.4467 -45.5081 -9.7772 0.0000 0.0000 0.0000 -27.2900 -0.9875 4.6642 9.3089 17.0024 57.1524 1.7760 -0.6714 25.4605 0.0253 -1.0272 -2.8237 0.0000 0.0000 0.0000 22.7481 4.2155 -32.0264 -3.2943 -11.1569 32.8110 -0.0450 -0.0586 -4.0279 -2.9337 -10.5869 30.8990 -7.4133 0.1202 11.9123 -0.7680 -0.9537 -0.2570 3.5368 -0.2289 -6.8771 -12.0956 -4.6794 -18.9195 5.7883 -4.2512 17.3852 3.3943 -2.1982 8.9641 -0.0000 -0.0000 0.0000 2.5899 17.9966 -31.3014 122.4992 -55.6063 87.73 12.3588 -22.2322 -9.1598 0.0 0.0 0.0 -7.1250 0.0 0.0 -12.6037 39.0527 -1.8819 -0.0000 -0.0000 0.0000 -2.424 24.9732 36.7627 -122.2575 -55.6778 -87.5304 -15.0617 -19.7815 -24.4437 0.0 0.0 0.0 7.1250 0.0 -0.0 8.7913 5.0237 8.0855
0.0906 16.9544 4.4169 20.7783 -45.8697 -9.7965 0.0000 0.0000 0.0000 -26.0816 -0.8140 3.0035 10.3381 17.5956 60.6124 1.5508 -0.6983 23.8121 0.0589 -1.5659 -4.3074 0.0000 0.0000 0.0000 23.2224 5.0207 -30.9300 -3.7419 -11.8088 35.0590 -0.1291 -2.4250 -8.1336 -2.3792 -9.6148 27.7382 -7.0353 0.1769 12.4562 -0.4699 -0.8475 -0.2267 3.6307 -0.1742 -7.1637 -11.9093 -4.6834 -18.9999 5.3028 -4.2059 17.7306 3.2027 -2.2234 9.0792 0.0000 0.0000 0.0000 2.2373 18.733 -30.715 121.5714 -55.8765 86.9631 10.47 -22.2214 -8.9813 0.0 0.0 0.0 -7.1250 0.0 0.0 -14.1597 38.7346 -2.2385 0.0000 0.0000 0.0000 -2.4307 23.9258 36.668 -121.3741 -55.9325 -86.7997 -15.4255 -20.1485 -24.3826 0.0 0.0 0.0 7.1250 0.0 -0.0 8.5640 5.0352 7.8696
